# xmcd
#
# Track frame offsets:
#	150
#	13498
#	26568
#	39205
#	54336
#	64885
#	78972
#	90175
#	101196
#	114907
#	142051
#
# Disc length: 2167 seconds
#
# Revision: 0
# Processed by: cddbd v1.5PL3 Copyright (c) Steve Scherf et al.
# Submitted via: dBpowerAMP V4.0
#
DISCID=8708750b
DTITLE=Various Artist - Texas Country
DYEAR=1900
DGENRE=Country
TTITLE0=Heartache County - Mark Chesnutt
TTITLE1=Two Stepping Cowboy - Willie Nelson
TTITLE2=Gabe's Horn - Arkey Blue
TTITLE3=I'll Sing You A Love Song - Terrah Sloane
TTITLE4=Deep In The Heart Of Texas - Augie Meyers
TTITLE5=Another Yellow Rose Of Texas - Terrah Sloane
TTITLE6=Sweet Judy Blue Eyes - George Chambers
TTITLE7=I'm Sure I Love You - Kenny Dale
TTITLE8=Hold My Love - Slim Roberts
TTITLE9=Loving You Ain't Easy - Rusty Lawrence
TTITLE10=DATA
EXTD=
EXTT0=
EXTT1=
EXTT2=
EXTT3=
EXTT4=
EXTT5=
EXTT6=
EXTT7=
EXTT8=
EXTT9=
EXTT10=
PLAYORDER=
